$MeshFormat
4.1 0 8
$EndMeshFormat
$PhysicalNames
11
2 1 "electrolyte"
2 2 "trans"
2 3 "membrane"
2 4 "cis"
1 5 "default"
1 6 "wall"
1 7 "axis"
1 8 "membrane"
1 9 "membrane_outer"
1 10 "cis"
1 11 "trans"
$EndPhysicalNames
$Entities
0 7 4 0
5 0 0 0 0 0 0 1 5 0
6 0 0 0 0 0 0 1 6 0
7 0 0 0 0 0 0 1 7 0
8 0 0 0 0 0 0 1 8 0
9 0 0 0 0 0 0 1 9 0
10 0 0 0 0 0 0 1 10 0
11 0 0 0 0 0 0 1 11 0
1 0 0 0 0 0 0 1 1 0
2 0 0 0 0 0 0 1 2 0
3 0 0 0 0 0 0 1 3 0
4 0 0 0 0 0 0 1 4 0
$EndEntities
$Nodes
11 215 1 215
1 5 0 6
9
10
11
27
28
29
6.1219463691969467e-01 -3.0000000000000000e+00 0.0000000000000000e+00
1.1727391217734393e+00 -3.0000000000000000e+00 0.0000000000000000e+00
1.6194635938544553e+00 -3.0000000000000000e+00 0.0000000000000000e+00
1.6247787943707026e+00 3.0000000000000000e+00 0.0000000000000000e+00
1.1737138615885550e+00 3.0000000000000000e+00 0.0000000000000000e+00
6.4067425066427264e-01 3.0000000000000004e+00 0.0000000000000000e+00
1 6 0 15
12
13
14
15
16
17
18
19
20
21
22
23
24
25
26
2.0000000000000000e+00 -2.6428312623062276e+00 0.0000000000000000e+00
2.0000000000000000e+00 -2.2567271649837495e+00 0.0000000000000000e+00
2.0000000000000000e+00 -1.8746764670486873e+00 0.0000000000000000e+00
2.0000000000000000e+00 -1.5134543299674987e+00 0.0000000000000000e+00
2.0000000000000000e+00 -1.1334303317261454e+00 0.0000000000000000e+00
2.0000000000000000e+00 -7.7018149495124844e-01 0.0000000000000000e+00
2.0000000000000000e+00 -3.7163641750812593e-01 0.0000000000000000e+00
2.0000000000000000e+00 -8.1067987748335568e-03 0.0000000000000000e+00
2.0000000000000004e+00 3.7163641750812415e-01 0.0000000000000000e+00
2.0000000000000004e+00 7.3313933654770924e-01 0.0000000000000000e+00
2.0000000000000004e+00 1.1149092525243756e+00 0.0000000000000000e+00
2.0000000000000004e+00 1.5012941318052491e+00 0.0000000000000000e+00
2.0000000000000004e+00 1.8581820875406265e+00 0.0000000000000000e+00
2.0000000000000004e+00 2.2425402671277919e+00 0.0000000000000000e+00
2.0000000000000004e+00 2.6014549225568775e+00 0.0000000000000000e+00
1 7 0 20
7
30
31
32
33
34
35
36
52
53
54
55
56
57
67
68
69
70
71
72
0.0000000000000000e+00 1.3000000000000002e+01 0.0000000000000000e+00
0.0000000000000000e+00 2.2292113638326900e+00 0.0000000000000000e+00
0.0000000000000000e+00 1.5122400475353741e+00 0.0000000000000000e+00
0.0000000000000000e+00 7.1636417508125305e-01 0.0000000000000000e+00
0.0000000000000000e+00 2.4480095070748220e-02 0.0000000000000000e+00
0.0000000000000000e+00 -7.7018149495124799e-01 0.0000000000000000e+00
0.0000000000000000e+00 -1.5170971772638722e+00 0.0000000000000000e+00
0.0000000000000000e+00 -2.3105444848537444e+00 0.0000000000000000e+00
0.0000000000000000e+00 1.0664409444224450e+01 0.0000000000000000e+00
0.0000000000000000e+00 8.7899741128690572e+00 0.0000000000000000e+00
0.0000000000000000e+00 7.2999141869686799e+00 0.0000000000000000e+00
0.0000000000000000e+00 5.8098542610683026e+00 0.0000000000000000e+00
0.0000000000000000e+00 4.6503524207529487e+00 0.0000000000000000e+00
0.0000000000000000e+00 3.7367365253777702e+00 0.0000000000000000e+00
0.0000000000000000e+00 -3.7275049523904027e+00 0.0000000000000000e+00
0.0000000000000000e+00 -4.6034880151389084e+00 0.0000000000000000e+00
0.0000000000000000e+00 -5.6428449603598567e+00 0.0000000000000000e+00
0.0000000000000000e+00 -6.9921319755488920e+00 0.0000000000000000e+00
0.0000000000000000e+00 -8.6383752114541270e+00 0.0000000000000000e+00
0.0000000000000000e+00 -1.0581574668075572e+01 0.0000000000000000e+00
1 8 0 14
3
37
38
39
40
41
42
43
46
47
48
49
50
51
2.0000000000000000e+00 3.0000000000000004e+00 0.0000000000000000e+00
2.3756699349266297e+00 -3.0000000000000000e+00 0.0000000000000000e+00
2.8360045974724573e+00 -3.0000000000000000e+00 0.0000000000000000e+00
3.3810039876374844e+00 -3.0000000000000000e+00 0.0000000000000000e+00
4.0715075431737535e+00 -3.0000000000000000e+00 0.0000000000000000e+00
5.1015253869331803e+00 -3.0000000000000000e+00 0.0000000000000000e+00
6.3704696232621485e+00 -3.0000000000000000e+00 0.0000000000000000e+00
7.9841902577949480e+00 -3.0000000000000000e+00 0.0000000000000000e+00
7.5885761702064993e+00 3.0000000000000004e+00 0.0000000000000000e+00
5.7412537346066967e+00 3.0000000000000004e+00 0.0000000000000000e+00
4.5323310815914795e+00 3.0000000000000004e+00 0.0000000000000000e+00
3.5497897918392782e+00 3.0000000000000009e+00 0.0000000000000000e+00
2.8706518172274045e+00 3.0000000000000009e+00 0.0000000000000000e+00
2.3761704342328374e+00 3.0000000000000009e+00 0.0000000000000000e+00
1 9 0 2
44
45
1.0000000000000000e+01 -1.0151043590205235e+00 0.0000000000000000e+00
1.0000000000000000e+01 9.6979128195895292e-01 0.0000000000000000e+00
1 10 0 5
6
58
59
60
61
1.0000000000000000e+01 3.0000000000000000e+00 0.0000000000000000e+00
9.5713028435287768e+00 5.8965776146096873e+00 0.0000000000000000e+00
8.0198833519318722e+00 8.9733969415572901e+00 0.0000000000000000e+00
5.8209584039432301e+00 1.1131201833650588e+01 0.0000000000000000e+00
3.0421976667978816e+00 1.2526018756864250e+01 0.0000000000000000e+00
1 11 0 6
5
62
63
64
65
66
1.0000000000000000e+01 -3.0000000000000000e+00 0.0000000000000000e+00
2.5240473946221336e+00 -1.2676217481521444e+01 0.0000000000000000e+00
4.8846463048062709e+00 -1.1725836949940243e+01 0.0000000000000000e+00
7.0826959827036422e+00 -1.0059420487305859e+01 0.0000000000000000e+00
8.6821078838539805e+00 -7.9619555311510570e+00 0.0000000000000000e+00
9.6844733354611314e+00 -5.4921830219192067e+00 0.0000000000000000e+00
2 1 0 31
1
73
74
75
76
77
78
79
80
81
82
83
84
85
86
87
88
89
90
91
92
93
94
95
96
97
98
99
100
101
102
0.0000000000000000e+00 -2.9999999999999996e+00 0.0000000000000000e+00
8.3930305993236665e-01 -2.4259309214129914e+00 0.0000000000000000e+00
1.4275104858849454e+00 -2.5651458492950412e+00 0.0000000000000000e+00
1.6696287894411626e+00 -2.2210572774340966e+00 0.0000000000000000e+00
1.6319905679373043e+00 -1.7643110082880269e+00 0.0000000000000000e+00
1.6084900925933401e+00 -1.3503563653084030e+00 0.0000000000000000e+00
1.5914109081527548e+00 -9.4818082861677566e-01 0.0000000000000000e+00
1.6697744919731634e+00 -5.6550117948666345e-01 0.0000000000000000e+00
1.5974812498821711e+00 -2.0605050568918654e-01 0.0000000000000000e+00
1.6668551570695271e+00 1.7483769351368803e-01 0.0000000000000000e+00
1.5900225665375776e+00 5.3005957880907351e-01 0.0000000000000000e+00
1.6711737070233492e+00 9.1337924204701071e-01 0.0000000000000000e+00
1.5796639942151158e+00 1.2754911938080689e+00 0.0000000000000000e+00
1.5920251167577382e+00 1.7194467686388695e+00 0.0000000000000000e+00
1.6598657268977588e+00 2.1895339754777119e+00 0.0000000000000000e+00
6.1596955607992554e-01 1.8089786006504263e+00 0.0000000000000000e+00
5.9811405120461814e-01 1.1264920638632394e+00 0.0000000000000000e+00
6.1145226012475673e-01 4.2942447885987894e-01 0.0000000000000000e+00
6.1720252797392761e-01 -2.8303915067825597e-01 0.0000000000000000e+00
5.9908702266863967e-01 -9.9885087729971556e-01 0.0000000000000000e+00
7.1199808290249156e-01 -1.7339495469472086e+00 0.0000000000000000e+00
8.4045723894352453e-01 2.4408124617893669e+00 0.0000000000000000e+00
1.2387519566179159e+00 -2.0716844349990762e+00 0.0000000000000000e+00
1.2495650155351321e+00 -1.6172948233322975e+00 0.0000000000000000e+00
1.1427556219347119e+00 -1.1605055672100038e+00 0.0000000000000000e+00
1.1911997899599414e+00 -5.6338128217942152e-01 0.0000000000000000e+00
1.1848559484365200e+00 1.4379505046658342e-01 0.0000000000000000e+00
1.1872713773748140e+00 8.5539010669386095e-01 0.0000000000000000e+00
1.1249586875875885e+00 1.4664371852177609e+00 0.0000000000000000e+00
1.2099376232035990e+00 2.0214122151903635e+00 0.0000000000000000e+00
1.4261196916643057e+00 2.5384083885531390e+00 0.0000000000000000e+00
2 2 0 34
8
183
184
185
186
187
188
189
190
191
192
193
194
195
196
197
198
199
200
201
202
203
204
205
206
207
208
209
210
211
212
213
214
215
0.0000000000000000e+00 -1.3000000000000000e+01 0.0000000000000000e+00
6.7514032644939459e-01 -3.4882920193910918e+00 0.0000000000000000e+00
1.3269656112444026e+00 -3.5188055336419333e+00 0.0000000000000000e+00
1.7832472873899707e+00 -3.3855445510623889e+00 0.0000000000000000e+00
2.1761208186543932e+00 -3.4499247013161849e+00 0.0000000000000000e+00
2.6463194111834856e+00 -3.4682132082471826e+00 0.0000000000000000e+00
3.2051616037112103e+00 -3.4823103656806196e+00 0.0000000000000000e+00
3.7601369627952295e+00 -3.4548963345993888e+00 0.0000000000000000e+00
6.9390289279698969e+00 -5.0366273866741755e+00 0.0000000000000000e+00
3.6704523720741613e+00 -8.5921613035205322e+00 0.0000000000000000e+00
5.8788660598850830e+00 -7.3863940681848170e+00 0.0000000000000000e+00
2.0413217062869604e+00 -9.9062348522290709e+00 0.0000000000000000e+00
9.2232330588445843e-01 -5.2550539220018919e+00 0.0000000000000000e+00
1.1107982450651976e+00 -6.4022218581046868e+00 0.0000000000000000e+00
1.5174066521152221e+00 -7.9520735056421250e+00 0.0000000000000000e+00
5.4304604136642665e+00 -4.1584873980367840e+00 0.0000000000000000e+00
9.3480062874044245e-01 -4.2123890311420826e+00 0.0000000000000000e+00
1.7850270196951228e+00 -3.9626892051619302e+00 0.0000000000000000e+00
2.3864357646360848e+00 -3.9508512291380113e+00 0.0000000000000000e+00
2.9951973928897644e+00 -4.0304998001168730e+00 0.0000000000000000e+00
3.6809839881295852e+00 -4.0455884132089786e+00 0.0000000000000000e+00
4.4404663299331952e+00 -3.7129447067203358e+00 0.0000000000000000e+00
3.8993753718992097e+00 -6.7787288902621397e+00 0.0000000000000000e+00
2.3948742010758441e+00 -6.9455278007907086e+00 0.0000000000000000e+00
1.9020959992312096e+00 -5.7679076381763323e+00 0.0000000000000000e+00
1.6650985005741867e+00 -4.8188199004712251e+00 0.0000000000000000e+00
2.7170278363658706e+00 -4.4884375740886933e+00 0.0000000000000000e+00
3.3408506825814466e+00 -4.6898936789002503e+00 0.0000000000000000e+00
4.2779257977707452e+00 -4.6502668397447655e+00 0.0000000000000000e+00
2.8327626037313824e+00 -6.0265277976372378e+00 0.0000000000000000e+00
5.0864906754826844e+00 -5.6034394387778308e+00 0.0000000000000000e+00
2.1723261283925144e+00 -4.4922102313154664e+00 0.0000000000000000e+00
2.5717195520220830e+00 -5.1567498634585895e+00 0.0000000000000000e+00
3.6557307355203745e+00 -5.4840335566516814e+00 0.0000000000000000e+00
2 3 0 53
2
103
104
105
106
107
108
109
110
111
112
113
114
115
116
117
118
119
120
121
122
123
124
125
126
127
128
129
130
131
132
133
134
135
136
137
138
139
140
141
142
143
144
145
146
147
148
149
150
151
152
153
154
2.0000000000000000e+00 -3.0000000000000000e+00 0.0000000000000000e+00
2.4062325305572507e+00 -2.5591999545563575e+00 0.0000000000000000e+00
2.4205051579549566e+00 -2.1350962943386693e+00 0.0000000000000000e+00
2.4046875099976885e+00 -1.6978124792901128e+00 0.0000000000000000e+00
2.3611851312733934e+00 -1.2961388706099686e+00 0.0000000000000000e+00
2.2814292057226062e+00 -9.6214282334336798e-01 0.0000000000000000e+00
2.3631614381565251e+00 -6.1792772817809261e-01 0.0000000000000000e+00
2.3933937745826701e+00 -2.3357297162946325e-01 0.0000000000000000e+00
2.3802967161283966e+00 1.8083356245808865e-01 0.0000000000000000e+00
2.3444658659873947e+00 5.5040339466141297e-01 0.0000000000000000e+00
2.3380985316871961e+00 9.5848522755367316e-01 0.0000000000000000e+00
2.3776749158875776e+00 1.3391215312441169e+00 0.0000000000000000e+00
2.3801766754598592e+00 1.7606455018790499e+00 0.0000000000000000e+00
2.3250994937413032e+00 2.2046471036766717e+00 0.0000000000000000e+00
3.8762561575655838e+00 -2.2467251494519220e+00 0.0000000000000000e+00
5.7694653298063097e+00 -1.9638308351604672e+00 0.0000000000000000e+00
7.0316020212362469e+00 -2.0540125363773769e+00 0.0000000000000000e+00
8.2420320874641853e+00 -1.5547753783133287e+00 0.0000000000000000e+00
7.8837716020593627e+00 6.4329662538796767e-02 0.0000000000000000e+00
6.8019109409353335e+00 1.5781837273447026e+00 0.0000000000000000e+00
5.0389899605437209e+00 1.7742102413256258e+00 0.0000000000000000e+00
3.1722424123336257e+00 2.4807990021988031e+00 0.0000000000000000e+00
4.7073160738092987e+00 -2.1004100172312685e+00 0.0000000000000000e+00
4.0421667984009497e+00 1.4342364758045345e+00 0.0000000000000000e+00
2.5835260901473216e+00 2.5517263916342974e+00 0.0000000000000000e+00
2.8544452004130410e+00 -1.9348227061668983e+00 0.0000000000000000e+00
2.8418322795111575e+00 -1.4352737869262231e+00 0.0000000000000000e+00
2.6760301625885408e+00 -9.6833920082419034e-01 0.0000000000000000e+00
2.8202449432228929e+00 -5.1402428300269332e-01 0.0000000000000000e+00
2.8345082495092444e+00 -4.9150511940596706e-02 0.0000000000000000e+00
2.7788866334034421e+00 3.9478963824690849e-01 0.0000000000000000e+00
2.6740146572150283e+00 7.7257823370870071e-01 0.0000000000000000e+00
2.7718560264982370e+00 1.1363858890899348e+00 0.0000000000000000e+00
2.8214635718928318e+00 1.6007921666668710e+00 0.0000000000000000e+00
2.7630464507590280e+00 2.0895247735208202e+00 0.0000000000000000e+00
6.6028244193808732e+00 -8.7540020679529962e-01 0.0000000000000000e+00
3.9441841176975836e+00 2.3028585514291757e+00 0.0000000000000000e+00
2.8462395775675771e+00 -2.4458375517985136e+00 0.0000000000000000e+00
4.6430768726889804e+00 4.7738432818407550e-01 0.0000000000000000e+00
5.9107229056532899e+00 4.2684108476048360e-01 0.0000000000000000e+00
3.3438371486814993e+00 1.8747343519761297e+00 0.0000000000000000e+00
5.1428027913182648e+00 -8.2530087321516910e-01 0.0000000000000000e+00
3.2966277152671055e+00 -2.2645257721134175e+00 0.0000000000000000e+00
4.1228725154969696e+00 -5.3148172336449051e-01 0.0000000000000000e+00
4.1035119183565536e+00 -1.3962954930604028e+00 0.0000000000000000e+00
3.7311061386082960e+00 7.7942388897753045e-01 0.0000000000000000e+00
3.3084023878280853e+00 -9.8305652402265487e-01 0.0000000000000000e+00
3.3687150273652615e+00 -3.0040598901318072e-01 0.0000000000000000e+00
3.2727189998204360e+00 2.6702593953010995e-01 0.0000000000000000e+00
3.3907363983650538e+00 -1.6820526244497054e+00 0.0000000000000000e+00
3.1044217223226780e+00 7.8421188819244159e-01 0.0000000000000000e+00
3.3117865151546213e+00 1.2826025590108028e+00 0.0000000000000000e+00
3.8552566925416083e+00 1.0723433264479379e-01 0.0000000000000000e+00
2 4 0 29
4
155
156
157
158
159
160
161
162
163
164
165
166
167
168
169
170
171
172
173
174
175
176
177
178
179
180
181
182
0.0000000000000000e+00 3.0000000000000000e+00 0.0000000000000000e+00
1.7315046511652259e+00 3.4203679251144243e+00 0.0000000000000000e+00
1.1989066100742631e+00 3.4159589166135373e+00 0.0000000000000000e+00
5.0634995415497119e+00 4.2402128388011695e+00 0.0000000000000000e+00
3.2393395742968121e+00 3.5044026637645209e+00 0.0000000000000000e+00
2.6563247846229245e+00 3.5016789616826274e+00 0.0000000000000000e+00
2.1730442655505020e+00 3.4361142739286992e+00 0.0000000000000000e+00
1.1102205842451043e+00 7.9504284117660040e+00 0.0000000000000000e+00
1.1350807204318476e+00 6.6650009962679544e+00 0.0000000000000000e+00
1.0420770327920321e+00 5.5168095168845870e+00 0.0000000000000000e+00
1.1349502496500481e+00 4.6012994832831380e+00 0.0000000000000000e+00
4.4469533363743130e+00 8.2607287824138265e+00 0.0000000000000000e+00
2.1399341612742617e+00 9.5652169776881646e+00 0.0000000000000000e+00
6.8019856020147911e+00 4.9487605758694082e+00 0.0000000000000000e+00
3.9587133181746244e+00 3.8284222867550475e+00 0.0000000000000000e+00
3.9627193813733070e+00 5.0060220713064867e+00 0.0000000000000000e+00
2.3382398510075184e+00 3.9953616637542111e+00 0.0000000000000000e+00
1.9045427101364008e+00 3.8331362392906159e+00 0.0000000000000000e+00
1.8311651302814593e+00 5.1285007626566346e+00 0.0000000000000000e+00
2.0449437579426006e+00 6.0692493297100816e+00 0.0000000000000000e+00
2.3745273628557833e+00 7.4575380024208711e+00 0.0000000000000000e+00
1.3978502589569481e+00 3.9369070615063149e+00 0.0000000000000000e+00
3.0951099372461348e+00 4.2661283221318538e+00 0.0000000000000000e+00
7.0827004766368429e-01 3.9105254366868536e+00 0.0000000000000000e+00
5.2783190068846544e+00 6.1934239295855997e+00 0.0000000000000000e+00
1.8267162020700098e+00 4.3686415635358111e+00 0.0000000000000000e+00
3.4762193820850436e+00 6.3983544087397410e+00 0.0000000000000000e+00
2.3924895744013215e+00 4.6318541008231771e+00 0.0000000000000000e+00
2.8294532705496560e+00 5.3051165155760618e+00 0.0000000000000000e+00
$EndNodes
$Elements
11 467 1 467
2 1 2 90
1 1 9 36
2 9 10 73
3 10 11 74
4 10 74 73
5 13 14 75
6 12 13 75
7 14 15 76
8 14 76 75
9 15 16 77
10 15 77 76
11 16 17 78
12 16 78 77
13 17 18 79
14 17 79 78
15 18 19 80
16 18 80 79
17 19 20 81
18 19 81 80
19 20 21 82
20 20 82 81
21 21 22 83
22 21 83 82
23 22 23 84
24 22 84 83
25 23 24 85
26 23 85 84
27 24 25 86
28 24 86 85
29 25 26 86
30 3 27 26
31 4 30 29
32 30 31 87
33 31 32 88
34 31 88 87
35 32 33 89
36 32 89 88
37 33 34 90
38 33 90 89
39 34 35 91
40 34 91 90
41 35 36 92
42 9 73 36
43 30 87 93
44 28 29 93
45 29 30 93
46 2 12 11
47 35 92 91
48 36 73 92
49 73 74 94
50 73 94 92
51 76 77 95
52 77 78 96
53 77 96 95
54 78 79 97
55 78 97 96
56 80 98 97
57 79 80 97
58 80 81 98
59 81 82 98
60 82 83 99
61 82 99 98
62 83 84 99
63 84 85 100
64 84 100 99
65 85 86 101
66 85 101 100
67 26 102 86
68 26 27 102
69 86 102 101
70 27 28 102
71 89 90 98
72 88 89 99
73 87 88 100
74 90 91 97
75 75 76 94
76 76 95 94
77 87 101 93
78 92 95 96
79 12 75 74
80 28 93 102
81 89 98 99
82 87 100 101
83 91 96 97
84 90 97 98
85 74 75 94
86 91 92 96
87 93 101 102
88 88 99 100
89 11 12 74
90 92 94 95
2 2 2 89
91 207 214 213
92 208 213 214
93 204 211 205
94 208 214 209
95 209 214 215
96 211 215 214
97 204 215 211
98 198 207 199
99 210 215 212
100 190 212 192
101 204 212 215
102 200 213 208
103 206 214 207
104 199 207 213
105 191 204 205
106 192 212 204
107 209 215 210
108 206 211 214
109 199 213 200
110 197 203 210
111 197 210 212
112 190 197 212
113 205 211 206
114 202 209 210
115 202 210 203
116 201 208 209
117 201 209 202
118 200 208 201
119 191 196 193
120 71 193 196
121 194 206 207
122 195 205 206
123 194 207 198
124 41 203 197
125 184 198 199
126 183 198 184
127 194 195 206
128 191 205 196
129 195 196 205
130 191 192 204
131 189 202 203
132 188 201 202
133 188 202 189
134 187 200 201
135 187 201 188
136 186 199 200
137 186 200 187
138 185 199 186
139 1 67 183
140 9 183 10
141 10 184 11
142 10 183 184
143 2 11 185
144 11 184 185
145 2 186 37
146 2 185 186
147 37 187 38
148 37 186 187
149 38 188 39
150 38 187 188
151 39 189 40
152 39 188 189
153 40 203 41
154 40 189 203
155 42 190 43
156 5 43 66
157 8 62 72
158 63 64 191
159 64 65 192
160 64 192 191
161 65 66 190
162 62 193 72
163 68 69 194
164 69 70 195
165 69 195 194
166 70 71 196
167 70 196 195
168 71 72 193
169 1 183 9
170 43 190 66
171 65 190 192
172 42 197 190
173 41 197 42
174 62 63 193
175 67 68 198
176 63 191 193
177 68 194 198
178 67 198 183
179 184 199 185
2 3 2 136
180 2 37 12
181 12 103 13
182 13 104 14
183 13 103 104
184 14 105 15
185 14 104 105
186 15 106 16
187 15 105 106
188 16 107 17
189 16 106 107
190 17 108 18
191 17 107 108
192 18 109 19
193 18 108 109
194 19 110 20
195 19 109 110
196 20 111 21
197 20 110 111
198 21 112 22
199 21 111 112
200 22 113 23
201 22 112 113
202 23 114 24
203 23 113 114
204 24 115 25
205 24 114 115
206 25 115 26
207 3 26 51
208 39 40 116
209 41 42 117
210 42 43 118
211 42 118 117
212 5 119 43
213 43 119 118
214 5 44 119
215 44 45 120
216 44 120 119
217 6 46 45
218 46 47 121
219 47 48 122
220 47 122 121
221 49 50 123
222 37 38 103
223 41 117 124
224 40 41 124
225 45 46 121
226 48 138 122
227 12 37 103
228 50 51 126
229 50 126 123
230 104 127 105
231 105 128 106
232 105 127 128
233 106 129 107
234 106 128 129
235 107 129 108
236 108 130 109
237 108 129 130
238 109 131 110
239 109 130 131
240 110 132 111
241 110 131 132
242 111 133 112
243 111 132 133
244 112 134 113
245 112 133 134
246 113 135 114
247 113 134 135
248 114 136 115
249 114 135 136
250 26 126 51
251 118 119 137
252 117 118 137
253 119 120 137
254 122 138 125
255 38 139 103
256 103 139 104
257 38 39 139
258 49 123 138
259 122 125 140
260 121 122 141
261 48 49 138
262 123 126 136
263 123 142 138
264 125 138 142
265 123 136 142
266 117 143 124
267 104 139 127
268 40 124 116
269 26 115 126
270 122 140 141
271 39 144 139
272 127 139 144
273 39 116 144
274 143 145 146
275 116 124 146
276 125 147 140
277 120 141 137
278 124 143 146
279 125 142 153
280 128 148 129
281 129 148 130
282 130 149 131
283 130 148 149
284 131 150 132
285 131 149 150
286 132 152 133
287 132 150 152
288 115 136 126
289 140 143 141
290 137 141 143
291 117 137 143
292 145 148 146
293 127 151 128
294 128 151 148
295 127 144 151
296 140 145 143
297 116 146 151
298 133 152 134
299 134 153 135
300 135 142 136
301 120 121 141
302 116 151 144
303 140 147 154
304 147 150 154
305 134 152 153
306 135 153 142
307 125 153 147
308 147 153 152
309 149 154 150
310 146 148 151
311 45 121 120
312 140 154 145
313 145 149 148
314 145 154 149
315 147 152 150
2 4 2 77
316 3 155 27
317 27 156 28
318 27 155 156
319 28 156 29
320 4 29 57
321 6 58 46
322 47 157 48
323 49 158 50
324 50 159 51
325 3 51 160
326 3 160 155
327 7 52 61
328 53 54 161
329 54 55 162
330 54 162 161
331 55 56 163
332 55 163 162
333 56 57 177
334 56 164 163
335 59 60 165
336 60 61 166
337 60 166 165
338 52 166 61
339 50 158 159
340 46 167 47
341 47 167 157
342 48 168 49
343 51 159 160
344 52 53 166
345 46 58 167
346 48 157 168
347 58 59 167
348 49 168 158
349 59 165 178
350 157 169 168
351 159 170 160
352 155 160 171
353 160 170 171
354 163 164 172
355 162 163 173
356 163 172 173
357 161 162 174
358 162 173 174
359 165 166 174
360 53 161 166
361 158 176 159
362 159 176 170
363 155 175 156
364 155 171 175
365 158 168 176
366 168 169 176
367 29 156 177
368 157 167 178
369 164 179 172
370 156 175 177
371 161 174 166
372 157 178 169
373 164 175 179
374 165 174 180
375 173 180 174
376 169 178 180
377 171 179 175
378 170 176 181
379 165 180 178
380 29 177 57
381 164 177 175
382 169 180 182
383 59 178 167
384 172 179 181
385 56 177 164
386 172 181 182
387 170 179 171
388 172 182 173
389 173 182 180
390 170 181 179
391 176 182 181
392 169 182 176
1 5 1 8
393 1 9
394 9 10
395 10 11
396 11 2
397 3 27
398 27 28
399 28 29
400 29 4
1 6 1 16
401 2 12
402 12 13
403 13 14
404 14 15
405 15 16
406 16 17
407 17 18
408 18 19
409 19 20
410 20 21
411 21 22
412 22 23
413 23 24
414 24 25
415 25 26
416 26 3
1 7 1 22
417 4 30
418 30 31
419 31 32
420 32 33
421 33 34
422 34 35
423 35 36
424 36 1
425 7 52
426 52 53
427 53 54
428 54 55
429 55 56
430 56 57
431 57 4
432 1 67
433 67 68
434 68 69
435 69 70
436 70 71
437 71 72
438 72 8
1 8 1 15
439 2 37
440 37 38
441 38 39
442 39 40
443 40 41
444 41 42
445 42 43
446 43 5
447 6 46
448 46 47
449 47 48
450 48 49
451 49 50
452 50 51
453 51 3
1 9 1 3
454 5 44
455 44 45
456 45 6
1 10 1 5
457 6 58
458 58 59
459 59 60
460 60 61
461 61 7
1 11 1 6
462 8 62
463 62 63
464 63 64
465 64 65
466 65 66
467 66 5
$EndElements
